<svg height="682pt" viewBox="-42 -21 682 682.66666" width="682pt" xmlns="http://www.w3.org/2000/svg"><path d="m212.25 106.671875c17.671875 0 32-14.332031 32-32.003906 0-17.667969-14.328125-32-32-32-17.675781 0-32 14.332031-32 32 0 17.671875 14.324219 32.003906 32 32.003906zm0-42.671875c5.890625 0 10.664062 4.78125 10.664062 10.667969 0 5.894531-4.773437 10.671875-10.664062 10.671875s-10.667969-4.777344-10.667969-10.671875c0-5.886719 4.777344-10.667969 10.667969-10.667969zm0 0"/><path d="m382.914062 42.667969h-76.796874l-11.050782-21.117188c-7.039062-13.359375-20.945312-21.671875-36.042968-21.550781h-92.246094c-15.097656-.125-29 8.191406-36.03125 21.550781l-11.007813 21.117188h-78.15625c-23.5625 0-42.664062 19.105469-42.664062 42.671875v469.328125c0 23.566406 19.101562 42.667969 42.664062 42.667969h181.332031c0 23.5625 19.109376 42.664062 42.667969 42.664062h288c23.566407 0 42.667969-19.101562 42.667969-42.664062v-277.335938c0-.234375-.117188-.433594-.136719-.667969-.058593-.96875-.25-1.925781-.566406-2.835937-.132813-.367188-.277344-.722656-.449219-1.070313-.414062-.835937-.9375-1.617187-1.558594-2.316406-.214843-.242187-.359374-.511719-.59375-.734375-.074218-.066406-.109374-.15625-.183593-.226562l-117.332031-106.664063c-.84375-.757813-1.808594-1.367187-2.847657-1.8125-.238281-.105469-.503906-.148437-.746093-.234375-.976563-.351562-1.996094-.558594-3.03125-.617188-.191407 0-.351563-.109374-.554688-.109374h-42.667969v-117.371094c0-23.566406-19.101562-42.671875-42.667969-42.671875zm-233.246093-11.273438c3.417969-6.246093 9.992187-10.109375 17.109375-10.058593h92.246094c7.105468-.035157 13.65625 3.828124 17.066406 10.058593l36.425781 69.867188c.277344.398437.585937.777343.917969 1.132812.292968.425781.613281.828125.96875 1.199219.671875.699219 1.433594 1.300781 2.261718 1.785156.257813.140625.492188.285156.765626.417969 1.011718.484375 2.089843.800781 3.203124.9375.128907 0 .226563.09375.34375.109375 11.074219 1.375 19.214844 11.054688 18.675782 22.199219-.542969 11.148437-9.578125 19.992187-20.738282 20.292969h-213.332031c-8.617187-.007813-16.386719-5.207032-19.683593-13.171876-3.296876-7.964843-1.480469-17.132812 4.613281-23.234374 3.398437-3.410157 7.886719-5.53125 12.683593-5.996094.203126 0 .394532.066406.59375.066406 3.984376.003906 7.636719-2.207031 9.472657-5.738281zm-108.085938 544.605469c-11.78125 0-21.332031-9.550781-21.332031-21.332031v-469.328125c0-11.785156 9.550781-21.339844 21.332031-21.339844h67.042969l-11.574219 22.320312c-19.863281 3.972657-34.148437 21.425782-34.136719 41.683594 0 23.566406 19.109376 42.667969 42.667969 42.667969h213.332031c21.5625.070313 39.765626-16.003906 42.359376-37.410156 2.59375-21.398438-11.25-41.355469-32.203126-46.433594l-11.894531-22.828125h65.738281c11.78125 0 21.332032 9.554688 21.332032 21.339844v117.328125h-138.664063c-23.558593 0-42.667969 19.105469-42.667969 42.667969v330.664062zm512 42.667969h-288c-11.777343 0-21.332031-9.550781-21.332031-21.332031v-352c0-11.78125 9.554688-21.335938 21.332031-21.335938h192v74.667969c0 17.675781 14.328125 32 32.003907 32h85.332031v266.667969c0 11.78125-9.550781 21.332031-21.335938 21.332031zm-63.996093-309.332031c-5.894532 0-10.671876-4.773438-10.671876-10.667969v-61.214844l79.074219 71.882813zm0 0"/><path d="m532.25 352.003906h-245.332031c-5.894531 0-10.667969 4.773438-10.667969 10.664063s4.773438 10.667969 10.667969 10.667969h245.332031c5.890625 0 10.664062-4.777344 10.664062-10.667969s-4.773437-10.664063-10.664062-10.664063zm0 0"/><path d="m532.25 405.335938h-245.332031c-5.894531 0-10.667969 4.777343-10.667969 10.664062 0 5.894531 4.773438 10.671875 10.667969 10.671875h245.332031c5.890625 0 10.664062-4.777344 10.664062-10.671875 0-5.886719-4.773437-10.664062-10.664062-10.664062zm0 0"/><path d="m532.25 458.667969h-245.332031c-5.894531 0-10.667969 4.773437-10.667969 10.667969 0 5.890624 4.773438 10.664062 10.667969 10.664062h245.332031c5.890625 0 10.664062-4.773438 10.664062-10.664062 0-5.894532-4.773437-10.667969-10.664062-10.667969zm0 0"/><path d="m532.25 512.003906h-245.332031c-5.894531 0-10.667969 4.773438-10.667969 10.664063s4.773438 10.667969 10.667969 10.667969h245.332031c5.890625 0 10.664062-4.777344 10.664062-10.667969s-4.773437-10.664063-10.664062-10.664063zm0 0"/><path d="m532.25 565.335938h-245.332031c-5.894531 0-10.667969 4.777343-10.667969 10.664062 0 5.894531 4.773438 10.671875 10.667969 10.671875h245.332031c5.890625 0 10.664062-4.777344 10.664062-10.671875 0-5.886719-4.773437-10.664062-10.664062-10.664062zm0 0"/><path d="m52.25 181.335938c-5.890625 0-10.667969 4.773437-10.667969 10.667968v31.996094c0 5.894531 4.777344 10.667969 10.667969 10.667969s10.664062-4.773438 10.664062-10.667969v-31.996094c0-5.894531-4.773437-10.667968-10.664062-10.667968zm0 0"/><path d="m52.25 256c-5.890625 0-10.667969 4.777344-10.667969 10.671875v149.328125c0 5.894531 4.777344 10.671875 10.667969 10.671875s10.664062-4.777344 10.664062-10.671875v-149.328125c0-5.894531-4.773437-10.671875-10.664062-10.671875zm0 0"/></svg>