<svg height="682pt" viewBox="-69 -21 682 682.66669" width="682pt" xmlns="http://www.w3.org/2000/svg"><path d="m507.886719 469.332031h-158.71875c-5.894531 0-10.667969 4.773438-10.667969 10.667969 0 5.890625 4.773438 10.664062 10.667969 10.664062h158.71875c18.136719.21875 33.027343-14.285156 33.277343-32.425781v-319.46875c.003907-2.5625-.914062-5.042969-2.589843-6.984375l-110.722657-128.097656c-2.023437-2.34375-4.972656-3.69140625-8.074218-3.68359375h-240c-18.132813-.22265625-33.027344 14.28515575-33.273438 32.42187475v255.574219c0 5.886719 4.773438 10.664062 10.660156 10.664062 5.894532 0 10.671876-4.777343 10.671876-10.664062v-255.574219c.253906-6.355469 5.589843-11.308593 11.941406-11.089843h221.933594l.792968 112.175781c.136719 14.644531 12.023438 26.445312 26.664063 26.488281h90.664062v298.238281c-.253906 6.351563-5.59375 11.308594-11.945312 11.09375zm-84.050781-336-.695313-102.546875 93.167969 107.878906h-87.140625c-2.945313 0-5.332031-2.386718-5.332031-5.332031zm0 0"/><path d="m130.5 640h53.335938c14.726562 0 26.664062-11.945312 26.664062-26.671875v-79.996094h80c14.726562 0 26.664062-11.941406 26.664062-26.667969v-53.332031c0-14.726562-11.9375-26.667969-26.664062-26.667969h-80v-80c0-14.722656-11.9375-26.664062-26.664062-26.664062h-53.335938c-14.726562 0-26.664062 11.941406-26.664062 26.664062v80h-80c-14.730469 0-26.667969 11.941407-26.667969 26.667969v53.332031c0 14.726563 11.9375 26.667969 26.667969 26.667969h80v79.996094c0 14.726563 11.9375 26.671875 26.664062 26.671875zm-112-133.335938v-53.332031c0-2.945312 2.386719-5.332031 5.335938-5.332031h90.664062c5.894531 0 10.667969-4.777344 10.667969-10.671875v-90.664063c0-2.941406 2.390625-5.328124 5.332031-5.328124h53.335938c2.945312 0 5.332031 2.386718 5.332031 5.328124v90.664063c0 5.894531 4.773437 10.671875 10.664062 10.671875h90.667969c2.945312 0 5.332031 2.386719 5.332031 5.332031v53.332031c0 2.945313-2.386719 5.332032-5.332031 5.332032h-90.667969c-5.890625 0-10.664062 4.777344-10.664062 10.671875v90.660156c0 2.945313-2.386719 5.332031-5.332031 5.332031h-53.335938c-2.941406 0-5.332031-2.386718-5.332031-5.332031v-90.660156c0-5.894531-4.773438-10.671875-10.667969-10.671875h-90.664062c-2.949219 0-5.335938-2.386719-5.335938-5.332032zm0 0"/></svg>