<svg height="496pt" viewBox="0 0 496 496" width="496pt" xmlns="http://www.w3.org/2000/svg"><path d="m464 192.808594v-104.808594c0-4.414062-3.574219-8-8-8h-88v-72c0-4.414062-3.574219-8-8-8h-288c-4.425781 0-8 3.585938-8 8v72h-24c-4.425781 0-8 3.585938-8 8v104.808594c-18.230469 3.71875-32 19.878906-32 39.191406v160c0 22.054688 17.945312 40 40 40h24v56c0 4.414062 3.574219 8 8 8h288c4.425781 0 8-3.585938 8-8v-56h88c22.054688 0 40-17.945312 40-40v-160c0-19.3125-13.769531-35.472656-32-39.191406zm-16-96.808594v96h-80v-96zm-368-80h272v176h-272zm-32 80h16v96h-16zm304 384h-272v-176h272zm128-88c0 13.230469-10.769531 24-24 24h-88v-120c0-4.414062-3.574219-8-8-8h-288c-4.425781 0-8 3.585938-8 8v120h-24c-13.230469 0-24-10.769531-24-24v-160c0-13.230469 10.769531-24 24-24h416c13.230469 0 24 10.769531 24 24zm0 0"/><path d="m440 272h-32c-13.230469 0-24 10.769531-24 24s10.769531 24 24 24h32c13.230469 0 24-10.769531 24-24s-10.769531-24-24-24zm0 32h-32c-4.414062 0-8-3.59375-8-8s3.585938-8 8-8h32c4.414062 0 8 3.59375 8 8s-3.585938 8-8 8zm0 0"/><path d="m440 336h-32c-13.230469 0-24 10.769531-24 24s10.769531 24 24 24h32c13.230469 0 24-10.769531 24-24s-10.769531-24-24-24zm0 32h-32c-4.414062 0-8-3.59375-8-8s3.585938-8 8-8h32c4.414062 0 8 3.59375 8 8s-3.585938 8-8 8zm0 0"/><path d="m96 336h240v16h-240zm0 0"/><path d="m96 368h240v16h-240zm0 0"/><path d="m96 400h240v16h-240zm0 0"/><path d="m96 432h240v16h-240zm0 0"/><path d="m272 224h-112c-13.230469 0-24 10.769531-24 24s10.769531 24 24 24h112c13.230469 0 24-10.769531 24-24s-10.769531-24-24-24zm0 32h-112c-4.414062 0-8-3.59375-8-8s3.585938-8 8-8h112c4.414062 0 8 3.59375 8 8s-3.585938 8-8 8zm0 0"/></svg>