<svg height="680pt" viewBox="-21 -127 680.00087 680" width="680pt" xmlns="http://www.w3.org/2000/svg"><path d="m458.398438 46.285156v-31.984375c0-11.777343-9.542969-21.320312-21.320313-21.320312h-415.757813c-11.773437 0-21.320312 9.542969-21.320312 21.320312v31.984375c0 11.773438 9.546875 21.320313 21.320312 21.320313h415.757813c11.777344 0 21.320313-9.546875 21.320313-21.320313zm-437.078126-31.984375h415.757813v31.984375h-415.757813zm0 0"/><path d="m373.117188 131.566406c0-11.777344-9.546876-21.320312-21.320313-21.320312h-330.476563c-11.773437 0-21.320312 9.542968-21.320312 21.320312v31.984375c0 11.773438 9.546875 21.320313 21.320312 21.320313h330.476563c11.773437 0 21.320313-9.546875 21.320313-21.320313zm-21.320313 31.984375h-330.476563v-31.984375h330.476563zm0 0"/><path d="m351.796875 227.511719h-330.476563c-11.773437 0-21.320312 9.542969-21.320312 21.320312v31.984375c0 11.773438 9.546875 21.320313 21.320312 21.320313h330.476563c11.773437 0 21.320313-9.546875 21.320313-21.320313v-31.984375c0-11.777343-9.546876-21.320312-21.320313-21.320312zm0 53.304687h-330.476563v-31.984375h330.476563zm0 0"/><path d="m437.078125 419.394531c11.777344 0 21.320313-9.542969 21.320313-21.320312v-31.976563c0-11.777344-9.542969-21.320312-21.320313-21.320312h-415.757813c-11.773437 0-21.320312 9.542968-21.320312 21.320312v31.976563c0 11.777343 9.546875 21.320312 21.320312 21.320312zm-415.757813-53.296875h415.757813v31.976563h-415.757813zm0 0"/><path d="m516.328125 371.765625c9.066406 2.71875 18.835937-.902344 23.941406-8.871094l93.8125-144.976562c4.679688-7.234375 4.542969-16.574219-.339843-23.667969l-93.8125-136.453125c-5.300782-7.707031-15.003907-11.058594-23.925782-8.273437-8.925781 2.792968-14.992187 11.074218-14.964844 20.421874v40.300782h-63.960937c-11.773437 0-21.320313 9.542968-21.320313 21.320312v159.90625c0 11.773438 9.546876 21.320313 21.320313 21.320313h63.960937v38.527343c-.042968 9.46875 6.199219 17.8125 15.289063 20.445313zm-79.25-80.292969v-159.90625h63.960937c11.777344 0 21.320313-9.546875 21.320313-21.320312v-40.300782l93.8125 136.460938-93.8125 144.914062v-38.527343c0-11.777344-9.542969-21.320313-21.320313-21.320313zm0 0"/></svg>