<svg height="680pt" viewBox="-21 -127 680.00105 680" width="680pt" xmlns="http://www.w3.org/2000/svg"><path d="m616.179688-7.019531h-415.78125c-11.777344 0-21.324219 9.550781-21.324219 21.328125v31.980468c0 11.777344 9.546875 21.320313 21.324219 21.320313h415.78125c11.777343 0 21.320312-9.542969 21.320312-21.320313v-31.980468c0-11.777344-9.542969-21.328125-21.320312-21.328125zm-415.78125 53.308593v-31.980468h415.78125v31.980468zm0 0"/><path d="m616.179688 110.253906h-330.496094c-11.773438 0-21.320313 9.546875-21.320313 21.320313v31.988281c0 11.773438 9.546875 21.320312 21.320313 21.320312h330.496094c11.777343 0 21.320312-9.546874 21.320312-21.320312v-31.988281c0-11.773438-9.542969-21.320313-21.320312-21.320313zm-330.496094 53.308594v-31.988281h330.496094v31.988281zm0 0"/><path d="m616.179688 227.527344h-330.496094c-11.773438 0-21.320313 9.542968-21.320313 21.320312v31.984375c0 11.777344 9.546875 21.324219 21.320313 21.324219h330.496094c11.777343 0 21.320312-9.546875 21.320312-21.324219v-31.984375c0-11.777344-9.542969-21.320312-21.320312-21.320312zm-330.496094 53.304687v-31.984375h330.496094v31.984375zm0 0"/><path d="m616.179688 344.796875h-415.78125c-11.777344 0-21.324219 9.546875-21.324219 21.324219v31.984375c0 11.777343 9.546875 21.320312 21.324219 21.320312h415.78125c11.777343 0 21.320312-9.542969 21.320312-21.320312v-31.984375c0-11.777344-9.542969-21.324219-21.320312-21.324219zm-415.78125 53.308594v-31.984375h415.78125v31.984375zm0 0"/><path d="m3.402344 217.929688 93.816406 144.992187c5.140625 7.921875 14.875 11.523437 23.929688 8.847656 9.050781-2.671875 15.273437-10.984375 15.285156-20.425781v-38.53125h63.964844c11.777343 0 21.320312-9.546875 21.320312-21.320312v-159.917969c0-11.773438-9.542969-21.320313-21.320312-21.320313h-63.964844v-40.296875c0-9.339843-6.082032-17.59375-14.996094-20.359375-8.921875-2.773437-18.605469.585938-23.894531 8.28125l-93.820313 136.460938c-4.84375 7.082031-4.972656 16.378906-.320312 23.589844zm111.707031-147.972657v40.296875c0 11.777344 9.546875 21.320313 21.324219 21.320313h63.964844v159.917969h-63.964844c-11.777344 0-21.324219 9.550781-21.324219 21.320312l.09375 38.660156-.09375-.128906-93.816406-144.988281zm0 0"/></svg>